<?xml version="1.0" encoding="utf-8"?>
<!-- Generator: Adobe Illustrator 21.0.2, SVG Export Plug-In . SVG Version: 6.00 Build 0)  -->
<svg version="1.1" id="Layer_1" xmlns="http://www.w3.org/2000/svg" xmlns:xlink="http://www.w3.org/1999/xlink" x="0px" y="0px"
	 viewBox="0 0 394.2 168.2" style="enable-background:new 0 0 394.2 168.2;" xml:space="preserve">
<style type="text/css">
	.st0{fill:#E95524;}
	.st1{fill:#F9EC23;}
	.st2{font-family:'RemachineScriptPersonalUseOnly';}
	.st3{font-size:100.4223px;}
	.st4{fill:#EC1E24;}
</style>
<g>
	<path class="st0" d="M57.5,87.8c0,0-30.8,43.4,2.2,80.4c0,0-5.1-6.4-0.3-20.6c0,0,3.2,5.7,22.9,12.7
		C82.3,160.2,50.5,134.9,57.5,87.8z"/>
	<path class="st0" d="M69,81.2c0,0,37.2,21,107,3.3c0,0,54.7-20.2,104,4c0,0-23.3,0.6-26.2,3.1c0,0-30.1-10.3-64.6-1.8
		C154.6,98.3,106.4,101,69,81.2z"/>
	<g>
		<path class="st0" d="M3.5,17.8c0,0,48.9-17.1,56.3,52.3c0,0,12.5-54-28.1-66.3C31.7,3.8,9.3-1.3,3.5,17.8z"/>
		<path class="st0" d="M70.9,77.1c0,0,13.1-46.6,58-45.9c0,0-21.1-21.3-48.9,5.4C79.9,36.7,63.5,54,70.9,77.1z"/>
		<path class="st0" d="M74,77.1c0,0,53.8-0.7,51.8-42.5c0,0,21.8,18.8-2.7,37.2C123.1,71.8,100.3,88.5,74,77.1z"/>
		<path class="st0" d="M67.3,73.5c0,0-8.2,7.6,2.7,8.7c0,0-8.3,9.9-12.8-0.4C57.1,81.7,53.6,68.3,67.3,73.5z"/>
		<path class="st0" d="M12.4,17.5c0,0-4.2,48.2,42.5,61.9c0,0-30,15.2-46.7-15.8S12.4,17.5,12.4,17.5z"/>
	</g>
	<text transform="matrix(1 0 0 1 68.904 150.3849)" class="st1 st2 st3">Sand</text>
	<text transform="matrix(1 0 0 1 229.804 150.3849)" class="st4 st2 st3">Merit</text>
</g>
</svg>
